<?xml version="1.0" encoding="UTF-8"?>
<svg width="125px" height="125px" viewBox="0 0 125 125" version="1.1" xmlns="http://www.w3.org/2000/svg" xmlns:xlink="http://www.w3.org/1999/xlink">
    <!-- Generator: Sketch 60 (88103) - https://sketch.com -->
    <title>Artboard Copy 4</title>
    <desc>Created with Sketch.</desc>
    <g id="Artboard-Copy-4" stroke="none" stroke-width="1" fill="none" fill-rule="evenodd">
        <g id="aubergine-copy" transform="translate(75.476619, 62.822165) rotate(-21.000000) translate(-75.476619, -62.822165) translate(38.976619, 28.822165)" fill="#B6B6B6" fill-rule="nonzero">
            <path d="M42.7066116,34 C41.8785444,34 41.2066116,34.6720828 41.2066116,35.5 C41.2066116,36.3280672 41.8786944,37 42.7066116,37 C43.5346788,37 44.2066116,36.3279172 44.2066116,35.5 C44.2066116,34.6719328 43.5346788,34 42.7066116,34 Z" id="Path"></path>
            <path d="M41.3697054,40.1235415 C40.6585673,39.8030182 39.8259947,40.1276838 39.5100115,40.8487184 C39.3337766,41.250658 39.1590914,41.65574 38.9835608,42.0649643 C36.6829275,47.4458705 33.3998304,52.7435036 30.6195169,55.5610805 C30.0691174,56.118711 30.0689765,57.0232895 30.6190943,57.5813485 C31.1687894,58.1392647 32.0609522,58.1396932 32.6116335,57.581777 C35.6225597,54.5302353 39.1385236,48.8855115 41.5683395,43.2027934 C41.7400664,42.8021393 41.9117933,42.4041991 42.0849289,42.0092584 C42.4007712,41.2883666 42.0805618,40.4440648 41.3697054,40.1235415 Z" id="Path"></path>
            <path d="M71.7947745,1.8453946 C69.6948254,-0.259948152 66.2790507,-0.259807119 64.1798048,1.84553563 L62.8531511,3.17590126 C57.3339117,-1.3538012 49.1554587,-1.03816903 44.0074686,4.12350295 C43.3890011,4.74362567 42.8332521,5.41804616 42.3486593,6.12786596 C42.3255969,6.15240573 42.3128,6.16665008 42.3128,6.16665008 C41.8277853,6.70638391 41.8131603,7.55357 42.3554093,8.11065091 C42.5019403,8.26832597 42.9141114,8.69297676 43.5272352,9.18349003 C38.2211829,12.7311787 29.8253241,18.047141 22.9871654,21.0211068 C16.6040683,23.7972032 10.6612672,27.5928282 7.08996161,31.1743648 C-1.68375587,39.9735636 -2.12995813,53.84375 6.09560415,62.0932016 C14.4034319,70.4251576 28.2392177,69.8068683 36.9250448,61.0959563 C40.4963504,57.5142786 44.2809837,51.554077 47.0489003,45.1525827 C50.0146758,38.2938589 55.3153843,29.8734751 58.8526588,24.5522946 C59.1734238,24.9557905 59.5463606,25.374941 59.9465785,25.7499481 C60.4914994,26.2538595 61.3172478,26.281502 61.8984498,25.7351396 C62.6060734,25.2492804 63.2788221,24.6916354 63.8975709,24.0710896 C69.0440141,18.9081483 69.3587323,10.7059428 64.8422879,5.17067403 L66.1689416,3.84016736 C67.1715959,2.83446002 68.8029834,2.83446002 69.8054971,3.84016736 C70.3549179,4.39090178 71.2450724,4.39090178 71.7946338,3.84016736 C72.343914,3.28957397 72.343914,2.39641108 71.7947745,1.8453946 Z M44.4680146,44.0302409 C41.8727852,50.0323294 38.2201985,55.8072135 34.9357673,59.1013246 C27.2589228,66.8004648 15.213571,67.2482451 8.08445969,60.0985699 C0.955629674,52.9490358 1.40169131,40.8685599 9.07881715,33.1692786 C12.3632483,29.8753085 18.1212685,26.2121137 24.1061163,23.609206 C31.6448674,20.3306086 40.9383339,14.3417772 46.205855,10.7785749 C47.1365095,11.1544282 48.0661796,11.3470795 48.9791153,11.3470795 C49.1600993,11.3470795 49.3398177,11.3434126 49.5182705,11.3357968 C49.0172246,14.3671632 49.5589111,17.2150454 49.5877391,17.362284 C49.6977077,17.9248652 50.1360349,18.3644655 50.6971276,18.4748945 C50.843518,18.5036652 53.6839969,19.0470659 56.7060223,18.5444238 C56.660038,19.6532264 56.7670534,20.6350991 57.2616306,21.8667416 C53.7087468,27.14942 47.7375396,36.469031 44.4680146,44.0302409 Z M61.9081529,22.0765989 C61.6436378,22.3420232 61.3671696,22.5930622 61.0815607,22.8285876 C60.768952,22.4396182 60.4135933,21.9381043 60.1185626,21.3600095 C59.5420012,20.2358343 59.2648299,19.004756 59.7400008,16.9893924 C59.85911,16.4846348 59.6921884,15.9550553 59.3057517,15.6105114 C58.918893,15.2658264 58.3748159,15.162026 57.8893794,15.3398688 C55.8823832,16.0742283 53.5142628,15.9764924 52.2144684,15.8408185 C52.0791874,14.536685 51.9820158,12.1618279 52.7139675,10.149426 C52.8911546,9.66215651 52.7873736,9.11664032 52.443968,8.72894021 C52.1004218,8.34138113 51.5723759,8.17439789 51.06908,8.29342986 C48.7709907,8.83866399 47.1284939,8.47099059 45.2462319,6.94867885 C45.4812158,6.66181744 45.7316684,6.38426422 45.9964648,6.11883984 C50.3831126,1.72043923 57.5216457,1.72015717 61.9084341,6.11869881 C66.2939569,10.5179456 66.2939569,17.676929 61.9081529,22.0765989 Z" id="Shape"></path>
        </g>
        <g id="aubergine-copy" transform="translate(42.706894, 60.457043) rotate(-63.000000) translate(-42.706894, -60.457043) translate(19.206894, 42.457043)" fill="#B6B6B6" fill-rule="nonzero" stroke="#B6B6B6">
            <path d="M46.6666034,1.19950649 C45.3016365,-0.168966299 43.081383,-0.168874628 41.7168731,1.19959816 L40.8545482,2.06433582 C37.2670426,-0.879970783 31.9510482,-0.674809871 28.6048546,2.68027691 C28.2028507,3.08335669 27.8416139,3.52173 27.5266286,3.98311288 C27.511638,3.99906373 27.50332,4.00832255 27.50332,4.00832255 C27.1880605,4.35914954 27.1785542,4.9098205 27.531016,5.27192309 C27.6262612,5.37441188 27.8941724,5.65043489 28.2927029,5.96926852 C24.8437689,8.27526617 19.3864606,11.7306416 14.9416575,13.6637194 C10.7926444,15.4681821 6.9298237,17.9353383 4.60847504,20.2633371 C0.567540788,24.3160074 -0.755713229,30.0235918 0.718318081,34.9137095 C1.02081975,35.9172626 6.80906902,29.4550238 13.9588959,28.3380817 C21.1381725,27.2165389 29.6803635,31.4339403 30.5817852,29.3491787 C32.5095393,24.8910083 35.9549998,19.4177588 38.2542282,15.9589915 C38.4627255,16.2212638 38.7051344,16.4937116 38.9652761,16.7374663 C39.3194746,17.0650087 39.8562111,17.0829763 40.2339924,16.7278407 C40.6939477,16.4120323 41.1312344,16.049563 41.5334211,15.6462082 C44.8786092,12.2902964 45.083176,6.95886282 42.1474871,3.36093812 L43.009812,2.49610879 C43.6615373,1.84239902 44.7219392,1.84239902 45.3735731,2.49610879 C45.7306966,2.85408616 46.3092971,2.85408616 46.666512,2.49610879 C47.0235441,2.13822308 47.0235441,1.5576672 46.6666034,1.19950649 Z M28.9042095,28.6196566 C28.0089382,30.6901855 20.7885025,27.5054366 14.0789487,28.5736986 C8.14614443,29.5182903 2.59992434,34.9019431 2.36578783,34.02638 C1.24724838,29.8435558 2.45036607,25.020855 5.90123115,21.5600311 C8.03611141,19.4189506 11.7788245,17.0378739 15.6689756,15.3459839 C20.5691638,13.2148956 26.609917,9.32215519 30.0338058,7.00607366 C30.6387312,7.25037832 31.2430167,7.37560165 31.8364249,7.37560165 C31.9540646,7.37560165 32.0708815,7.37321819 32.1868758,7.36826793 C31.861196,9.33865606 32.2132922,11.1897795 32.2320304,11.2854846 C32.30351,11.6511624 32.5884227,11.9369026 32.9531329,12.0086814 C33.0482867,12.0273824 34.894598,12.3805929 36.8589145,12.0538755 C36.8290247,12.7745971 36.8985847,13.4128144 37.2200599,14.213382 C34.9106854,17.647123 31.0294007,23.7048702 28.9042095,28.6196566 Z M40.2402994,14.3497893 C40.0683646,14.5223151 39.8886602,14.6854905 39.7030145,14.8385819 C39.4998188,14.5857518 39.2688356,14.2597678 39.0770657,13.8840062 C38.7023008,13.1532923 38.5221394,12.3530914 38.8310005,11.0431051 C38.9084215,10.7150126 38.7999225,10.370786 38.5487386,10.1468324 C38.2972805,9.92278713 37.9436304,9.85531688 37.6280966,9.97091469 C36.3235491,10.4482484 34.7842708,10.38472 33.9394045,10.296532 C33.8514718,9.44884526 33.7883102,7.90518815 34.2640789,6.59712691 C34.3792505,6.28040173 34.3117928,5.92581621 34.0885792,5.67381114 C33.8652742,5.42189774 33.5220444,5.31335863 33.194902,5.39072941 C31.701144,5.7451316 30.633521,5.50614388 29.4100507,4.51664125 C29.5627903,4.33018134 29.7255845,4.14977174 29.8977021,3.9772459 C32.7490232,1.1182855 37.3890697,1.11810216 40.2404822,3.97715423 C43.091072,6.83666465 43.091072,11.4900038 40.2402994,14.3497893 Z" id="Shape"></path>
        </g>
    </g>
</svg>