<?xml version="1.0" encoding="UTF-8"?>
<svg width="125px" height="125px" viewBox="0 0 125 125" version="1.1" xmlns="http://www.w3.org/2000/svg" xmlns:xlink="http://www.w3.org/1999/xlink">
    <!-- Generator: Sketch 60 (88103) - https://sketch.com -->
    <title>Artboard Copy 5</title>
    <desc>Created with Sketch.</desc>
    <g id="Artboard-Copy-5" stroke="none" stroke-width="1" fill="none" fill-rule="evenodd">
        <g id="aubergine-copy" transform="translate(68.444908, 73.319805) rotate(-21.000000) translate(-68.444908, -73.319805) translate(37.444908, 44.319805)" fill="#B6B6B6" fill-rule="nonzero">
            <path d="M36.3006198,28.9 C35.5967627,28.9 35.0256198,29.4712704 35.0256198,30.175 C35.0256198,30.8788571 35.5968902,31.45 36.3006198,31.45 C37.0044769,31.45 37.5756198,30.8787296 37.5756198,30.175 C37.5756198,29.4711429 37.0044769,28.9 36.3006198,28.9 Z" id="Path"></path>
            <path d="M35.1642496,34.1050103 C34.5597822,33.8325655 33.8520955,34.1085312 33.5835098,34.7214106 C33.4337101,35.0630593 33.2852277,35.407379 33.1360267,35.7552196 C31.1804884,40.32899 28.3898558,44.831978 26.0265894,47.2269184 C25.5587498,47.7009044 25.55863,48.469796 26.0262301,48.9441462 C26.493471,49.418375 27.2518094,49.4187393 27.7198884,48.9445105 C30.2791757,46.3507 33.267745,41.5526848 35.3330886,36.7223744 C35.4790564,36.3818184 35.6250243,36.0435692 35.7721896,35.7078696 C36.0406555,35.0951116 35.7684775,34.3774551 35.1642496,34.1050103 Z" id="Path"></path>
            <path d="M61.0255583,1.56858541 C59.2406016,-0.22095593 56.3371931,-0.220836051 54.552834,1.56870529 L53.4251784,2.69951607 C48.7338249,-1.15073102 41.7821399,-0.882443677 37.4063483,3.5049775 C36.8806509,4.03208182 36.4082643,4.60533923 35.9963604,5.20868607 C35.9767573,5.22954487 35.96588,5.24165257 35.96588,5.24165257 C35.5536175,5.70042633 35.5411863,6.4205345 36.0020979,6.89405328 C36.1266492,7.02807707 36.4769946,7.38903024 36.9981499,7.80596652 C32.4880055,10.8215019 25.3515255,15.3400698 19.5390906,17.8679408 C14.113458,20.2276227 9.06207714,23.4539039 6.02646737,26.4982101 C-1.43119249,33.9775291 -1.81046441,45.7671875 5.18126353,52.7792214 C12.2429171,59.861384 24.0033351,59.3358381 31.386288,51.9315629 C34.4218978,48.8871368 37.6388362,43.8209654 39.9915652,38.3796953 C42.5124744,32.54978 47.0180767,25.3924538 50.02476,20.8694505 C50.2974102,21.2124219 50.6144065,21.5686998 50.9545918,21.8874559 C51.4177745,22.3157806 52.1196606,22.3392767 52.6136823,21.8748687 C53.2151624,21.4618884 53.7869988,20.9878901 54.3129353,20.4604261 C58.687412,16.071926 58.9549224,9.10005138 55.1159447,4.39507292 L56.2436003,3.26414226 C57.0958565,2.40929102 58.4825359,2.40929102 59.3346725,3.26414226 C59.8016802,3.73226652 60.5583115,3.73226652 61.0254388,3.26414226 C61.4923269,2.79613788 61.4923269,2.03694942 61.0255583,1.56858541 Z M37.7978124,37.4257048 C35.5918674,42.52748 32.4871687,47.4361314 29.6954022,50.2361259 C23.1700843,56.7803951 12.9315353,57.1610083 6.87179074,51.0837844 C0.812285223,45.0066804 1.19143762,34.7382759 7.71699458,28.1938868 C10.5087611,25.3940123 15.4030782,22.2802966 20.4901989,20.0678251 C26.8981373,17.2810173 34.7975838,12.1905106 39.2749768,9.16178864 C40.066033,9.48126396 40.8562526,9.64501754 41.632248,9.64501754 C41.7860844,9.64501754 41.9388451,9.64190071 42.0905299,9.63542729 C41.6646409,12.2120887 42.1250744,14.6327886 42.1495783,14.7579414 C42.2430515,15.2361354 42.6156297,15.6097957 43.0925585,15.7036603 C43.2169903,15.7281155 45.6313973,16.190006 48.2001189,15.7627602 C48.1610323,16.7052424 48.2519954,17.5398343 48.672386,18.5867303 C45.6524348,23.077007 40.5769086,30.9986764 37.7978124,37.4257048 Z M52.62193,18.765109 C52.3970921,18.9907198 52.1620941,19.2041029 51.9193266,19.4042994 C51.6536092,19.0736754 51.3515543,18.6473887 51.1007782,18.1560081 C50.610701,17.2004591 50.3751054,16.1540426 50.7790007,14.4409835 C50.8802435,14.0119396 50.7383601,13.561797 50.4098889,13.2689347 C50.0810591,12.9759524 49.6185936,12.8877221 49.2059725,13.0388884 C47.5000258,13.6630941 45.4871234,13.5800185 44.3822982,13.4646957 C44.2673093,12.3561823 44.1847134,10.3375537 44.8068724,8.62701212 C44.9574814,8.21283303 44.8692675,7.74914427 44.5773728,7.41959918 C44.2853585,7.09017396 43.8365195,6.94823821 43.408718,7.04941539 C41.4553421,7.51286439 40.0592198,7.200342 38.4592971,5.90637702 C38.6590334,5.66254482 38.8719182,5.42662458 39.0969951,5.20101387 C42.8256457,1.46237335 48.8933989,1.46213359 52.622169,5.20089399 C56.3498634,8.94025378 56.3498634,15.0253896 52.62193,18.765109 Z" id="Shape"></path>
        </g>
        <g id="aubergine-copy" transform="translate(56.944908, 38.819805) rotate(-45.000000) translate(-56.944908, -38.819805) translate(30.444908, 20.319805)" fill="#B6B6B6" fill-rule="nonzero">
            <path d="M52.4819479,1.96073176 C50.250752,-0.276194912 46.6214914,-0.276045064 44.3910426,1.96088161 L42.981473,3.37439509 C37.1172812,-1.43841378 28.4276749,-1.1030546 22.9579354,4.38122188 C22.3008136,5.04010228 21.7103304,5.75667404 21.1954505,6.51085759 C21.1709467,6.53693109 21.15735,6.55206571 21.15735,6.55206571 C20.6420219,7.12553291 20.6264829,8.02566813 21.2026224,8.61756659 C21.3583115,8.78509634 21.7962433,9.2362878 22.4476874,9.75745815 C18.6892337,12.2704043 13.530347,15.6600858 6.9710274,19.9265026 C7.20308895,20.5830351 7.08775792,21.1426632 6.62503431,21.6053868 C6.16231069,22.0681104 5.00427487,22.7818492 3.15092684,23.7466032 L0.198688756,36.547268 C11.4567556,35.4715337 18.8297736,34.7177194 22.3177429,34.2858253 C25.9940439,33.8306112 27.6587608,31.4036409 29.2208234,31.053072 C34.8985078,29.7788471 35.1482682,31.626673 35.6415869,30.8471438 C36.7427429,29.1071262 37.7949514,27.4948512 38.7309499,26.0868131 C39.0717628,26.5155274 39.4680081,26.9608748 39.8932397,27.3593198 C40.4722181,27.8947257 41.3495758,27.9240959 41.9671029,27.3435858 C42.718953,26.8273605 43.4337485,26.2348626 44.0911691,25.5755327 C49.559265,20.0899076 49.8936531,11.3750642 45.0949309,5.49384115 L46.5045004,4.08017782 C47.5698206,3.01161378 49.3031698,3.01161378 50.3683406,4.08017782 C50.9521002,4.66533314 51.8978894,4.66533314 52.4817985,4.08017782 C53.0654087,3.49517235 53.0654087,2.54618678 52.4819479,1.96073176 Z M5.77192818,24.0482608 C15.0552959,18.1748458 21.5625602,13.9761708 25.2937209,11.4522358 C26.2825413,11.85158 27.2703158,12.0562719 28.24031,12.0562719 C28.4326055,12.0562719 28.6235563,12.0523759 28.8131624,12.0442841 C28.2808011,15.2651109 28.856343,18.2909858 28.8869728,18.4474268 C29.0038144,19.0451693 29.4695371,19.5122446 30.0656981,19.6295754 C30.2212378,19.6601443 33.2392467,20.2375076 36.4501487,19.7034503 C36.4012904,20.881553 36.5149943,21.9247928 37.0404825,23.2334129 C36.2164894,24.458584 34.6869362,26.8204997 32.4518227,30.3191601 C30.0705701,29.9605629 28.3939977,30.1048103 27.4221054,30.7519021 C26.4502132,31.3989939 25.6361281,32.9130416 24.9798504,35.294045 L0.112455089,36.6335017 L4.17249762,23.1666597 L5.77192818,24.0482608 Z M41.9774124,23.4563863 C41.6963651,23.7383997 41.4026177,24.0051286 41.0991583,24.2553743 C40.7670115,23.8420943 40.3894428,23.3092358 40.0759727,22.6950101 C39.4633763,21.5005739 39.1688817,20.1925532 39.6737509,18.0512294 C39.8003043,17.5149244 39.6229502,16.9522463 39.2123611,16.5861683 C38.8013238,16.2199405 38.2232419,16.1096526 37.7074656,16.2986106 C35.5750322,17.0788676 33.0589042,16.9750231 31.6778727,16.8308696 C31.5341367,15.4452278 31.4308917,12.9219422 32.2085904,10.7837651 C32.3968518,10.2660413 32.2865844,9.68643034 31.921716,9.27449897 C31.5566981,8.86271745 30.9956494,8.68529776 30.4608975,8.81176923 C28.0191776,9.39108049 26.2740247,9.0004275 24.2741214,7.38297128 C24.5237918,7.07818103 24.7898977,6.78328073 25.0712438,6.50126733 C29.7320571,1.82796668 37.3167486,1.82766699 41.9777113,6.50111749 C46.6373293,11.1753172 46.6373293,18.781737 41.9774124,23.4563863 Z" id="Shape"></path>
        </g>
        <g id="aubergine-copy" transform="translate(40.444908, 70.319805) rotate(-63.000000) translate(-40.444908, -70.319805) translate(20.444908, 55.319805)" fill="#B6B6B6" fill-rule="nonzero" stroke="#B6B6B6" stroke-width="0.85">
            <path d="M39.6666129,1.01958051 C38.506391,-0.143621354 36.6191755,-0.143543433 35.4593421,1.01965844 L34.726366,1.75468545 C31.6769862,-0.747975165 27.1583909,-0.57358839 24.3141264,2.27823538 C23.9724231,2.62085318 23.6653718,2.9934705 23.3976343,3.38564595 C23.3848923,3.39920417 23.377822,3.40707417 23.377822,3.40707417 C23.1098514,3.70527711 23.1017711,4.17334743 23.4013636,4.48113463 C23.482322,4.5682501 23.7100465,4.80286966 24.0487974,5.07387824 C21.1172035,7.03397624 16.4784915,9.97104538 12.7004089,11.6141615 C9.17374773,13.1479548 5.89035014,15.2450376 3.91720379,17.2238366 C0.48240967,20.6686063 -0.642356245,25.520053 0.610570369,29.6766531 C0.867696786,30.5296732 5.78770867,25.0367702 11.8650615,24.0873694 C17.9674466,23.1340581 25.2283089,26.7188492 25.9945174,24.9468019 C27.6331084,21.157357 30.5617498,16.505095 32.516094,13.5651428 C32.6933166,13.7880742 32.8993642,14.0196549 33.1204846,14.2268463 C33.4215534,14.5052574 33.8777794,14.5205299 34.1988935,14.2186646 C34.5898556,13.9502274 34.9615492,13.6421286 35.3034079,13.299277 C38.1468178,10.4467519 38.3206996,5.9150334 35.825364,2.8567974 L36.5583402,2.12169247 C37.1123067,1.56603916 38.0136483,1.56603916 38.5675371,2.12169247 C38.8710921,2.42597324 39.3629025,2.42597324 39.6665352,2.12169247 C39.9700125,1.81748962 39.9700125,1.32401712 39.6666129,1.01958051 Z M24.5685781,24.3267081 C23.8075975,26.0866577 17.6702271,23.3796211 11.9671064,24.2876438 C6.92422277,25.0905468 2.20993569,29.6666516 2.01091966,28.922423 C1.06016112,25.3670224 2.08281116,21.2677268 5.01604648,18.3260264 C6.8306947,16.506108 10.0120008,14.4821928 13.3186293,13.0440863 C17.4837893,11.2326612 22.6184295,7.92383191 25.5287349,5.95516261 C26.0429215,6.16282158 26.5565642,6.2692614 27.0609612,6.2692614 C27.1609549,6.2692614 27.2602493,6.26723546 27.3588445,6.26302774 C27.0820166,7.93785765 27.3812984,9.51131259 27.3972259,9.59266192 C27.4579835,9.90348804 27.7001593,10.1463672 28.010163,10.2073792 C28.0910437,10.223275 29.6604083,10.5235039 31.3300773,10.2457942 C31.304671,10.8584076 31.363797,11.4008923 31.6370509,12.0813747 C29.6740826,15.0000545 26.3749906,20.1491397 24.5685781,24.3267081 Z M34.2042545,12.1973209 C34.0581099,12.3439678 33.9053612,12.4826669 33.7475623,12.6127946 C33.574846,12.397889 33.3785103,12.1208026 33.2155058,11.8014052 C32.8969557,11.1802984 32.7438185,10.5001277 33.0063505,9.3866393 C33.0721583,9.10776071 32.9799341,8.81516807 32.7664278,8.62480752 C32.5526884,8.43436906 32.2520858,8.37701934 31.9838821,8.47527749 C30.8750167,8.88101115 29.5666302,8.82701203 28.8484938,8.75205221 C28.7737511,8.03151847 28.7200637,6.71940993 29.124467,5.60755788 C29.2223629,5.33834147 29.1650239,5.03694378 28.9752923,4.82273947 C28.785483,4.60861308 28.4937377,4.51635484 28.2156667,4.58212 C26.9459724,4.88336186 26.0384929,4.6802223 24.9985431,3.83914507 C25.1283717,3.68065414 25.2667468,3.52730598 25.4130468,3.38065901 C27.8366697,0.950542676 31.7807093,0.950386834 34.2044099,3.38058109 C36.6274112,5.81116495 36.6274112,9.76650325 34.2042545,12.1973209 Z" id="Shape"></path>
        </g>
    </g>
</svg>