<?xml version="1.0" encoding="UTF-8"?>
<svg width="125px" height="125px" viewBox="0 0 125 125" version="1.1" xmlns="http://www.w3.org/2000/svg" xmlns:xlink="http://www.w3.org/1999/xlink">
    <!-- Generator: Sketch 60 (88103) - https://sketch.com -->
    <title>Artboard</title>
    <desc>Created with Sketch.</desc>
    <g id="Artboard" stroke="none" stroke-width="1" fill="none" fill-rule="evenodd">
        <g id="aubergine-copy" transform="translate(62.500000, 63.000000) rotate(-21.000000) translate(-62.500000, -63.000000) translate(26.000000, 29.000000)" fill="#B6B6B6" fill-rule="nonzero">
            <path d="M42.7066116,34 C41.8785444,34 41.2066116,34.6720828 41.2066116,35.5 C41.2066116,36.3280672 41.8786944,37 42.7066116,37 C43.5346788,37 44.2066116,36.3279172 44.2066116,35.5 C44.2066116,34.6719328 43.5346788,34 42.7066116,34 Z" id="Path"></path>
            <path d="M41.3697054,40.1235415 C40.6585673,39.8030182 39.8259947,40.1276838 39.5100115,40.8487184 C39.3337766,41.250658 39.1590914,41.65574 38.9835608,42.0649643 C36.6829275,47.4458705 33.3998304,52.7435036 30.6195169,55.5610805 C30.0691174,56.118711 30.0689765,57.0232895 30.6190943,57.5813485 C31.1687894,58.1392647 32.0609522,58.1396932 32.6116335,57.581777 C35.6225597,54.5302353 39.1385236,48.8855115 41.5683395,43.2027934 C41.7400664,42.8021393 41.9117933,42.4041991 42.0849289,42.0092584 C42.4007712,41.2883666 42.0805618,40.4440648 41.3697054,40.1235415 Z" id="Path"></path>
            <path d="M71.7947745,1.8453946 C69.6948254,-0.259948152 66.2790507,-0.259807119 64.1798048,1.84553563 L62.8531511,3.17590126 C57.3339117,-1.3538012 49.1554587,-1.03816903 44.0074686,4.12350295 C43.3890011,4.74362567 42.8332521,5.41804616 42.3486593,6.12786596 C42.3255969,6.15240573 42.3128,6.16665008 42.3128,6.16665008 C41.8277853,6.70638391 41.8131603,7.55357 42.3554093,8.11065091 C42.5019403,8.26832597 42.9141114,8.69297676 43.5272352,9.18349003 C38.2211829,12.7311787 29.8253241,18.047141 22.9871654,21.0211068 C16.6040683,23.7972032 10.6612672,27.5928282 7.08996161,31.1743648 C-1.68375587,39.9735636 -2.12995813,53.84375 6.09560415,62.0932016 C14.4034319,70.4251576 28.2392177,69.8068683 36.9250448,61.0959563 C40.4963504,57.5142786 44.2809837,51.554077 47.0489003,45.1525827 C50.0146758,38.2938589 55.3153843,29.8734751 58.8526588,24.5522946 C59.1734238,24.9557905 59.5463606,25.374941 59.9465785,25.7499481 C60.4914994,26.2538595 61.3172478,26.281502 61.8984498,25.7351396 C62.6060734,25.2492804 63.2788221,24.6916354 63.8975709,24.0710896 C69.0440141,18.9081483 69.3587323,10.7059428 64.8422879,5.17067403 L66.1689416,3.84016736 C67.1715959,2.83446002 68.8029834,2.83446002 69.8054971,3.84016736 C70.3549179,4.39090178 71.2450724,4.39090178 71.7946338,3.84016736 C72.343914,3.28957397 72.343914,2.39641108 71.7947745,1.8453946 Z M44.4680146,44.0302409 C41.8727852,50.0323294 38.2201985,55.8072135 34.9357673,59.1013246 C27.2589228,66.8004648 15.213571,67.2482451 8.08445969,60.0985699 C0.955629674,52.9490358 1.40169131,40.8685599 9.07881715,33.1692786 C12.3632483,29.8753085 18.1212685,26.2121137 24.1061163,23.609206 C31.6448674,20.3306086 40.9383339,14.3417772 46.205855,10.7785749 C47.1365095,11.1544282 48.0661796,11.3470795 48.9791153,11.3470795 C49.1600993,11.3470795 49.3398177,11.3434126 49.5182705,11.3357968 C49.0172246,14.3671632 49.5589111,17.2150454 49.5877391,17.362284 C49.6977077,17.9248652 50.1360349,18.3644655 50.6971276,18.4748945 C50.843518,18.5036652 53.6839969,19.0470659 56.7060223,18.5444238 C56.660038,19.6532264 56.7670534,20.6350991 57.2616306,21.8667416 C53.7087468,27.14942 47.7375396,36.469031 44.4680146,44.0302409 Z M61.9081529,22.0765989 C61.6436378,22.3420232 61.3671696,22.5930622 61.0815607,22.8285876 C60.768952,22.4396182 60.4135933,21.9381043 60.1185626,21.3600095 C59.5420012,20.2358343 59.2648299,19.004756 59.7400008,16.9893924 C59.85911,16.4846348 59.6921884,15.9550553 59.3057517,15.6105114 C58.918893,15.2658264 58.3748159,15.162026 57.8893794,15.3398688 C55.8823832,16.0742283 53.5142628,15.9764924 52.2144684,15.8408185 C52.0791874,14.536685 51.9820158,12.1618279 52.7139675,10.149426 C52.8911546,9.66215651 52.7873736,9.11664032 52.443968,8.72894021 C52.1004218,8.34138113 51.5723759,8.17439789 51.06908,8.29342986 C48.7709907,8.83866399 47.1284939,8.47099059 45.2462319,6.94867885 C45.4812158,6.66181744 45.7316684,6.38426422 45.9964648,6.11883984 C50.3831126,1.72043923 57.5216457,1.72015717 61.9084341,6.11869881 C66.2939569,10.5179456 66.2939569,17.676929 61.9081529,22.0765989 Z" id="Shape"></path>
        </g>
    </g>
</svg>